<?xml version="1.0" encoding="utf-8"?>
<!-- Generator: Adobe Illustrator 15.0.0, SVG Export Plug-In . SVG Version: 6.00 Build 0)  -->
<!DOCTYPE svg PUBLIC "-//W3C//DTD SVG 1.1//EN" "http://www.w3.org/Graphics/SVG/1.1/DTD/svg11.dtd">
<svg version="1.1" id="Layer_1" xmlns="http://www.w3.org/2000/svg" xmlns:xlink="http://www.w3.org/1999/xlink" x="0px" y="0px"
	 width="76px" height="76px" viewBox="0 0 76 76" enable-background="new 0 0 76 76" xml:space="preserve">
<g>
	
		<circle fill="none" stroke="#005169" stroke-width="1.5379" stroke-miterlimit="10" stroke-dasharray="2.9942,3.6819" cx="38" cy="38" r="37.198"/>
</g>
<g>
	<path fill="#005169" d="M33.437,36.565c0.307-0.989-0.241-2.038-1.227-2.344c-0.986-0.31-2.037,0.238-2.343,1.223
		c-0.314,0.985,0.241,2.033,1.223,2.343C32.079,38.096,33.123,37.551,33.437,36.565z"/>
	<path fill="#005169" d="M32.48,42.171c-0.623,0.819-0.463,1.996,0.359,2.616c0.821,0.627,1.993,0.464,2.617-0.355
		c0.625-0.827,0.467-1.996-0.354-2.624C34.276,41.185,33.104,41.344,32.48,42.171z"/>
	<path fill="#005169" d="M38,33.21c1.032,0,1.87-0.835,1.87-1.869c0-1.033-0.838-1.869-1.87-1.869c-1.029,0-1.869,0.836-1.869,1.869
		C36.131,32.375,36.971,33.21,38,33.21z"/>
	<path fill="#005169" d="M42.802,45.051c0.854-0.582,1.072-1.747,0.493-2.598c-0.586-0.854-1.746-1.075-2.602-0.496
		c-0.854,0.584-1.072,1.744-0.487,2.6C40.785,45.41,41.951,45.63,42.802,45.051z"/>
	<path fill="#005169" d="M44.918,37.908c0.989-0.292,1.554-1.332,1.262-2.321c-0.291-0.989-1.331-1.555-2.32-1.263
		c-0.992,0.292-1.559,1.333-1.268,2.322C42.885,37.635,43.926,38.201,44.918,37.908z"/>
	<path fill="#005169" d="M28.487,30.929c2.103,0.511,3.256-0.007,3.906-0.507c1.241-0.953,1.405-2.424,1.576-3.278
		c0.172-0.858,0.252-8.521-0.339-9.564c-0.303-0.537-1.063-0.58-2.778-0.252c-1.712,0.328-4.94,2.329-6.173,3.278
		c-1.244,0.949-2.668,2.193-4.128,4.137c-1.461,1.945-1.212,2.949-0.709,3.545C20.35,28.878,26.391,30.412,28.487,30.929z"/>
	<path fill="#005169" d="M29.1,41.179c-0.547-1.461-1.91-2.044-2.676-2.464c-0.77-0.412-8.079-2.715-9.247-2.449
		c-0.605,0.135-0.869,0.85-1.058,2.588c-0.183,1.735,0.804,5.4,1.351,6.859c0.54,1.46,1.322,3.191,2.763,5.148
		c1.435,1.963,2.464,2.013,3.18,1.707c0.715-0.313,3.935-5.645,5.038-7.507C29.552,43.201,29.384,41.949,29.1,41.179z"/>
	<path fill="#005169" d="M38,0.618C17.354,0.618,0.618,17.354,0.618,38c0,20.645,16.736,37.381,37.382,37.381
		c20.645,0,37.381-16.736,37.381-37.381C75.381,17.354,58.645,0.618,38,0.618z M38.004,63.287C24.04,63.287,12.717,51.963,12.717,38
		c0-13.964,11.323-25.287,25.287-25.287c13.959,0,25.283,11.323,25.283,25.287C63.287,51.963,51.963,63.287,38.004,63.287z"/>
	<path fill="#005169" d="M50.526,20.014c-1.287-0.89-2.908-1.87-5.203-2.669c-2.296-0.791-3.176-0.251-3.589,0.413
		c-0.413,0.661-0.03,6.881,0.126,9.039c0.148,2.154,0.998,3.092,1.667,3.563c1.285,0.891,2.737,0.603,3.604,0.504
		c0.867-0.098,8.189-2.358,9.006-3.242c0.414-0.453,0.233-1.194-0.611-2.723C54.698,23.364,51.803,20.904,50.526,20.014z"/>
	<path fill="#005169" d="M41.246,49.438c-1.355-1.679-2.584-1.972-3.406-1.972c-1.563,0-2.584,1.069-3.246,1.645
		c-0.661,0.571-5.381,6.609-5.545,7.804c-0.083,0.608,0.496,1.105,2.051,1.891c1.562,0.771,5.34,1.146,6.903,1.146
		c1.558,0,3.445-0.125,5.789-0.779c2.344-0.656,2.754-1.605,2.713-2.383C46.464,56.009,42.601,51.123,41.246,49.438z"/>
	<path fill="#005169" d="M46.926,41.126c-0.486,1.48,0.207,2.792,0.547,3.592c0.339,0.806,4.601,7.177,5.688,7.706
		c0.55,0.271,1.203-0.125,2.427-1.366c1.23-1.239,2.761-4.709,3.253-6.199c0.485-1.479,0.954-3.313,1.066-5.738
		c0.103-2.43-0.661-3.114-1.421-3.318c-0.752-0.209-6.603,1.937-8.621,2.699C47.846,39.258,47.182,40.34,46.926,41.126z"/>
</g>
</svg>
